<?xml version="1.0" encoding="UTF-8" standalone="no"?>
<!-- This is a Stata 19.5 generated SVG file (http://www.stata.com) -->

<svg version="1.1" width="8.500in" height="5.000in" viewBox="0 0 6120 3600" xmlns="http://www.w3.org/2000/svg" xmlns:xlink="http://www.w3.org/1999/xlink">
	<desc>Stata Graph - Graph</desc>
	<rect x="0" y="0" width="6120" height="3600" style="fill:#FFFFFF;stroke:none"/>
	<rect x="0.00" y="0.00" width="6119.81" height="3600.00" style="fill:#FFFFFF"/>
	<rect x="3.60" y="3.60" width="6112.61" height="3592.80" style="fill:none;stroke:#FFFFFF;stroke-width:7.20"/>
	<rect x="700.93" y="252.07" width="5130.86" height="2503.53" style="fill:#FFFFFF"/>
	<rect x="704.53" y="255.67" width="5123.66" height="2496.33" style="fill:none;stroke:#FFFFFF;stroke-width:7.20"/>
	<line x1="3266.36" y1="2676.43" x2="3266.36" y2="2604.32" style="stroke:#505050;stroke-width:16.20"/>
	<line x1="3266.36" y1="2568.37" x2="3266.36" y2="2496.46" style="stroke:#505050;stroke-width:16.20"/>
	<line x1="3266.36" y1="2460.50" x2="3266.36" y2="2388.40" style="stroke:#505050;stroke-width:16.20"/>
	<line x1="3266.36" y1="2352.44" x2="3266.36" y2="2280.34" style="stroke:#505050;stroke-width:16.20"/>
	<line x1="3266.36" y1="2244.38" x2="3266.36" y2="2172.47" style="stroke:#505050;stroke-width:16.20"/>
	<line x1="3266.36" y1="2136.51" x2="3266.36" y2="2064.41" style="stroke:#505050;stroke-width:16.20"/>
	<line x1="3266.36" y1="2028.45" x2="3266.36" y2="1956.35" style="stroke:#505050;stroke-width:16.20"/>
	<line x1="3266.36" y1="1920.40" x2="3266.36" y2="1848.48" style="stroke:#505050;stroke-width:16.20"/>
	<line x1="3266.36" y1="1812.53" x2="3266.36" y2="1740.42" style="stroke:#505050;stroke-width:16.20"/>
	<line x1="3266.36" y1="1704.47" x2="3266.36" y2="1632.36" style="stroke:#505050;stroke-width:16.20"/>
	<line x1="3266.36" y1="1596.41" x2="3266.36" y2="1524.50" style="stroke:#505050;stroke-width:16.20"/>
	<line x1="3266.36" y1="1488.54" x2="3266.36" y2="1416.44" style="stroke:#505050;stroke-width:16.20"/>
	<line x1="3266.36" y1="1380.48" x2="3266.36" y2="1308.38" style="stroke:#505050;stroke-width:16.20"/>
	<line x1="3266.36" y1="1272.42" x2="3266.36" y2="1200.51" style="stroke:#505050;stroke-width:16.20"/>
	<line x1="3266.36" y1="1164.36" x2="3266.36" y2="1092.45" style="stroke:#505050;stroke-width:16.20"/>
	<line x1="3266.36" y1="1056.49" x2="3266.36" y2="984.39" style="stroke:#505050;stroke-width:16.20"/>
	<line x1="3266.36" y1="948.44" x2="3266.36" y2="876.52" style="stroke:#505050;stroke-width:16.20"/>
	<line x1="3266.36" y1="840.38" x2="3266.36" y2="768.46" style="stroke:#505050;stroke-width:16.20"/>
	<line x1="3266.36" y1="732.51" x2="3266.36" y2="660.40" style="stroke:#505050;stroke-width:16.20"/>
	<line x1="3266.36" y1="624.45" x2="3266.36" y2="552.35" style="stroke:#505050;stroke-width:16.20"/>
	<line x1="3266.36" y1="516.39" x2="3266.36" y2="444.48" style="stroke:#505050;stroke-width:16.20"/>
	<line x1="3266.36" y1="408.52" x2="3266.36" y2="336.42" style="stroke:#505050;stroke-width:16.20"/>
	<line x1="4241.35" y1="2676.43" x2="4241.35" y2="2604.32" style="stroke:#505050;stroke-width:16.20"/>
	<line x1="4241.35" y1="2568.37" x2="4241.35" y2="2496.46" style="stroke:#505050;stroke-width:16.20"/>
	<line x1="4241.35" y1="2460.50" x2="4241.35" y2="2388.40" style="stroke:#505050;stroke-width:16.20"/>
	<line x1="4241.35" y1="2352.44" x2="4241.35" y2="2280.34" style="stroke:#505050;stroke-width:16.20"/>
	<line x1="4241.35" y1="2244.38" x2="4241.35" y2="2172.47" style="stroke:#505050;stroke-width:16.20"/>
	<line x1="4241.35" y1="2136.51" x2="4241.35" y2="2064.41" style="stroke:#505050;stroke-width:16.20"/>
	<line x1="4241.35" y1="2028.45" x2="4241.35" y2="1956.35" style="stroke:#505050;stroke-width:16.20"/>
	<line x1="4241.35" y1="1920.40" x2="4241.35" y2="1848.48" style="stroke:#505050;stroke-width:16.20"/>
	<line x1="4241.35" y1="1812.53" x2="4241.35" y2="1740.42" style="stroke:#505050;stroke-width:16.20"/>
	<line x1="4241.35" y1="1704.47" x2="4241.35" y2="1632.36" style="stroke:#505050;stroke-width:16.20"/>
	<line x1="4241.35" y1="1596.41" x2="4241.35" y2="1524.50" style="stroke:#505050;stroke-width:16.20"/>
	<line x1="4241.35" y1="1488.54" x2="4241.35" y2="1416.44" style="stroke:#505050;stroke-width:16.20"/>
	<line x1="4241.35" y1="1380.48" x2="4241.35" y2="1308.38" style="stroke:#505050;stroke-width:16.20"/>
	<line x1="4241.35" y1="1272.42" x2="4241.35" y2="1200.51" style="stroke:#505050;stroke-width:16.20"/>
	<line x1="4241.35" y1="1164.36" x2="4241.35" y2="1092.45" style="stroke:#505050;stroke-width:16.20"/>
	<line x1="4241.35" y1="1056.49" x2="4241.35" y2="984.39" style="stroke:#505050;stroke-width:16.20"/>
	<line x1="4241.35" y1="948.44" x2="4241.35" y2="876.52" style="stroke:#505050;stroke-width:16.20"/>
	<line x1="4241.35" y1="840.38" x2="4241.35" y2="768.46" style="stroke:#505050;stroke-width:16.20"/>
	<line x1="4241.35" y1="732.51" x2="4241.35" y2="660.40" style="stroke:#505050;stroke-width:16.20"/>
	<line x1="4241.35" y1="624.45" x2="4241.35" y2="552.35" style="stroke:#505050;stroke-width:16.20"/>
	<line x1="4241.35" y1="516.39" x2="4241.35" y2="444.48" style="stroke:#505050;stroke-width:16.20"/>
	<line x1="4241.35" y1="408.52" x2="4241.35" y2="336.42" style="stroke:#505050;stroke-width:16.20"/>
	<path d=" M828.88 2304.05 L1316.37 2239.22 L1803.87 2143.02 L2291.37 2041.84 L2778.86 1917.91 L3266.36 1791.49 L3753.86 1613.62 L4241.35 1462.34 L4728.85 1367.67 L5216.34 1276.44 L5703.84 1164.36" stroke-linejoin="round" style="fill:none;stroke:#29B6A4;stroke-width:16.20"/>
	<circle cx="828.88" cy="2304.05" r="30.67" style="fill:#29B6A4"/>
	<circle cx="828.88" cy="2304.05" r="22.57" style="fill:none;stroke:#29B6A4;stroke-width:16.20"/>
	<circle cx="1316.37" cy="2239.22" r="30.67" style="fill:#29B6A4"/>
	<circle cx="1316.37" cy="2239.22" r="22.57" style="fill:none;stroke:#29B6A4;stroke-width:16.20"/>
	<circle cx="1803.87" cy="2143.02" r="30.67" style="fill:#29B6A4"/>
	<circle cx="1803.87" cy="2143.02" r="22.57" style="fill:none;stroke:#29B6A4;stroke-width:16.20"/>
	<circle cx="2291.37" cy="2041.84" r="30.67" style="fill:#29B6A4"/>
	<circle cx="2291.37" cy="2041.84" r="22.57" style="fill:none;stroke:#29B6A4;stroke-width:16.20"/>
	<circle cx="2778.86" cy="1917.91" r="30.67" style="fill:#29B6A4"/>
	<circle cx="2778.86" cy="1917.91" r="22.57" style="fill:none;stroke:#29B6A4;stroke-width:16.20"/>
	<circle cx="3266.36" cy="1791.49" r="30.67" style="fill:#29B6A4"/>
	<circle cx="3266.36" cy="1791.49" r="22.57" style="fill:none;stroke:#29B6A4;stroke-width:16.20"/>
	<circle cx="3753.86" cy="1613.62" r="30.67" style="fill:#29B6A4"/>
	<circle cx="3753.86" cy="1613.62" r="22.57" style="fill:none;stroke:#29B6A4;stroke-width:16.20"/>
	<circle cx="4241.35" cy="1462.34" r="30.67" style="fill:#29B6A4"/>
	<circle cx="4241.35" cy="1462.34" r="22.57" style="fill:none;stroke:#29B6A4;stroke-width:16.20"/>
	<circle cx="4728.85" cy="1367.67" r="30.67" style="fill:#29B6A4"/>
	<circle cx="4728.85" cy="1367.67" r="22.57" style="fill:none;stroke:#29B6A4;stroke-width:16.20"/>
	<circle cx="5216.34" cy="1276.44" r="30.67" style="fill:#29B6A4"/>
	<circle cx="5216.34" cy="1276.44" r="22.57" style="fill:none;stroke:#29B6A4;stroke-width:16.20"/>
	<circle cx="5703.84" cy="1164.36" r="30.67" style="fill:#29B6A4"/>
	<circle cx="5703.84" cy="1164.36" r="22.57" style="fill:none;stroke:#29B6A4;stroke-width:16.20"/>
	<path d=" M828.88 2324.14 L1316.37 2244.19 L1803.87 2143.40 L2291.37 2040.12 L2778.86 1922.31 L3266.36 1851.35 L3753.86 1800.86 L4241.35 1750.75 L4728.85 1690.12 L5216.34 1662.77 L5703.84 1589.91" stroke-linejoin="round" style="fill:none;stroke:#FAA523;stroke-width:16.20"/>
	<circle cx="828.88" cy="2324.14" r="30.67" style="fill:#FAA523"/>
	<circle cx="828.88" cy="2324.14" r="22.57" style="fill:none;stroke:#FAA523;stroke-width:16.20"/>
	<circle cx="1316.37" cy="2244.19" r="30.67" style="fill:#FAA523"/>
	<circle cx="1316.37" cy="2244.19" r="22.57" style="fill:none;stroke:#FAA523;stroke-width:16.20"/>
	<circle cx="1803.87" cy="2143.40" r="30.67" style="fill:#FAA523"/>
	<circle cx="1803.87" cy="2143.40" r="22.57" style="fill:none;stroke:#FAA523;stroke-width:16.20"/>
	<circle cx="2291.37" cy="2040.12" r="30.67" style="fill:#FAA523"/>
	<circle cx="2291.37" cy="2040.12" r="22.57" style="fill:none;stroke:#FAA523;stroke-width:16.20"/>
	<circle cx="2778.86" cy="1922.31" r="30.67" style="fill:#FAA523"/>
	<circle cx="2778.86" cy="1922.31" r="22.57" style="fill:none;stroke:#FAA523;stroke-width:16.20"/>
	<circle cx="3266.36" cy="1851.35" r="30.67" style="fill:#FAA523"/>
	<circle cx="3266.36" cy="1851.35" r="22.57" style="fill:none;stroke:#FAA523;stroke-width:16.20"/>
	<circle cx="3753.86" cy="1800.86" r="30.67" style="fill:#FAA523"/>
	<circle cx="3753.86" cy="1800.86" r="22.57" style="fill:none;stroke:#FAA523;stroke-width:16.20"/>
	<circle cx="4241.35" cy="1750.75" r="30.67" style="fill:#FAA523"/>
	<circle cx="4241.35" cy="1750.75" r="22.57" style="fill:none;stroke:#FAA523;stroke-width:16.20"/>
	<circle cx="4728.85" cy="1690.12" r="30.67" style="fill:#FAA523"/>
	<circle cx="4728.85" cy="1690.12" r="22.57" style="fill:none;stroke:#FAA523;stroke-width:16.20"/>
	<circle cx="5216.34" cy="1662.77" r="30.67" style="fill:#FAA523"/>
	<circle cx="5216.34" cy="1662.77" r="22.57" style="fill:none;stroke:#FAA523;stroke-width:16.20"/>
	<circle cx="5703.84" cy="1589.91" r="30.67" style="fill:#FAA523"/>
	<circle cx="5703.84" cy="1589.91" r="22.57" style="fill:none;stroke:#FAA523;stroke-width:16.20"/>
	<path d="" stroke-linejoin="round" style="fill:none;stroke:#000000;stroke-opacity:0.00;stroke-width:0.00"/>
	<text x="3266.36" y="240.47" style="font-family:'Lucida Sans';font-size:100.02px;fill:#505050" text-anchor="middle">Entry</text>
	<text x="4241.35" y="240.47" style="font-family:'Lucida Sans';font-size:100.02px;fill:#505050" text-anchor="middle">Withdrawal</text>
	<line x1="700.93" y1="2755.61" x2="700.93" y2="252.07" style="stroke:#000000;stroke-width:10.80"/>
	<line x1="700.93" y1="2676.43" x2="651.02" y2="2676.43" style="stroke:#000000;stroke-width:10.80"/>
	<text x="625.96" y="2711.48" style="font-family:'Lucida Sans';font-size:100.02px;fill:#000000" text-anchor="end">20000</text>
	<line x1="700.93" y1="2090.23" x2="651.02" y2="2090.23" style="stroke:#000000;stroke-width:10.80"/>
	<text x="625.96" y="2125.29" style="font-family:'Lucida Sans';font-size:100.02px;fill:#000000" text-anchor="end">40000</text>
	<line x1="700.93" y1="1503.84" x2="651.02" y2="1503.84" style="stroke:#000000;stroke-width:10.80"/>
	<text x="625.96" y="1538.90" style="font-family:'Lucida Sans';font-size:100.02px;fill:#000000" text-anchor="end">60000</text>
	<line x1="700.93" y1="917.45" x2="651.02" y2="917.45" style="stroke:#000000;stroke-width:10.80"/>
	<text x="625.96" y="952.51" style="font-family:'Lucida Sans';font-size:100.02px;fill:#000000" text-anchor="end">80000</text>
	<line x1="700.93" y1="331.25" x2="651.02" y2="331.25" style="stroke:#000000;stroke-width:10.80"/>
	<text x="625.96" y="366.31" style="font-family:'Lucida Sans';font-size:100.02px;fill:#000000" text-anchor="end">100000</text>
	<text x="166.88" y="1503.84" style="font-family:'Lucida Sans';font-size:100.02px;fill:#000000" transform="rotate(-90 166.88,1503.84)" text-anchor="middle">Mean W-2 Wage Earnings</text>
	<line x1="700.93" y1="2755.61" x2="5831.79" y2="2755.61" style="stroke:#000000;stroke-width:10.80"/>
	<line x1="828.88" y1="2755.61" x2="828.88" y2="2805.72" style="stroke:#000000;stroke-width:10.80"/>
	<text x="828.88" y="2900.50" style="font-family:'Lucida Sans';font-size:100.02px;fill:#000000" text-anchor="middle">-5</text>
	<line x1="1316.37" y1="2755.61" x2="1316.37" y2="2805.72" style="stroke:#000000;stroke-width:10.80"/>
	<text x="1316.37" y="2900.50" style="font-family:'Lucida Sans';font-size:100.02px;fill:#000000" text-anchor="middle">-4</text>
	<line x1="1803.87" y1="2755.61" x2="1803.87" y2="2805.72" style="stroke:#000000;stroke-width:10.80"/>
	<text x="1803.87" y="2900.50" style="font-family:'Lucida Sans';font-size:100.02px;fill:#000000" text-anchor="middle">-3</text>
	<line x1="2291.37" y1="2755.61" x2="2291.37" y2="2805.72" style="stroke:#000000;stroke-width:10.80"/>
	<text x="2291.37" y="2900.50" style="font-family:'Lucida Sans';font-size:100.02px;fill:#000000" text-anchor="middle">-2</text>
	<line x1="2778.86" y1="2755.61" x2="2778.86" y2="2805.72" style="stroke:#000000;stroke-width:10.80"/>
	<text x="2778.86" y="2900.50" style="font-family:'Lucida Sans';font-size:100.02px;fill:#000000" text-anchor="middle">-1</text>
	<line x1="3266.36" y1="2755.61" x2="3266.36" y2="2805.72" style="stroke:#000000;stroke-width:10.80"/>
	<text x="3266.36" y="2900.50" style="font-family:'Lucida Sans';font-size:100.02px;fill:#000000" text-anchor="middle">0</text>
	<line x1="3753.86" y1="2755.61" x2="3753.86" y2="2805.72" style="stroke:#000000;stroke-width:10.80"/>
	<text x="3753.86" y="2900.50" style="font-family:'Lucida Sans';font-size:100.02px;fill:#000000" text-anchor="middle">1</text>
	<line x1="4241.35" y1="2755.61" x2="4241.35" y2="2805.72" style="stroke:#000000;stroke-width:10.80"/>
	<text x="4241.35" y="2900.50" style="font-family:'Lucida Sans';font-size:100.02px;fill:#000000" text-anchor="middle">2</text>
	<line x1="4728.85" y1="2755.61" x2="4728.85" y2="2805.72" style="stroke:#000000;stroke-width:10.80"/>
	<text x="4728.85" y="2900.50" style="font-family:'Lucida Sans';font-size:100.02px;fill:#000000" text-anchor="middle">3</text>
	<line x1="5216.34" y1="2755.61" x2="5216.34" y2="2805.72" style="stroke:#000000;stroke-width:10.80"/>
	<text x="5216.34" y="2900.50" style="font-family:'Lucida Sans';font-size:100.02px;fill:#000000" text-anchor="middle">4</text>
	<line x1="5703.84" y1="2755.61" x2="5703.84" y2="2805.72" style="stroke:#000000;stroke-width:10.80"/>
	<text x="5703.84" y="2900.50" style="font-family:'Lucida Sans';font-size:100.02px;fill:#000000" text-anchor="middle">5</text>
	<text x="3266.36" y="3050.45" style="font-family:'Lucida Sans';font-size:100.02px;fill:#000000" text-anchor="middle">Years Relative to Entry</text>
	<rect x="1530.19" y="3148.83" width="3472.53" height="407.95" style="fill:#FFFFFF"/>
	<rect x="1533.79" y="3152.43" width="3465.33" height="400.75" style="fill:none;stroke:#FFFFFF;stroke-opacity:0.00;stroke-width:7.20"/>
	<line x1="1584.12" y1="3265.30" x2="2052.11" y2="3265.30" style="stroke:#29B6A4;stroke-width:16.20"/>
	<circle cx="1818.21" cy="3265.30" r="30.67" style="fill:#29B6A4"/>
	<circle cx="1818.21" cy="3265.30" r="22.57" style="fill:none;stroke:#29B6A4;stroke-width:16.20"/>
	<line x1="3392.20" y1="3265.30" x2="3860.19" y2="3265.30" style="stroke:#FAA523;stroke-width:16.20"/>
	<circle cx="3626.10" cy="3265.30" r="30.67" style="fill:#FAA523"/>
	<circle cx="3626.10" cy="3265.30" r="22.57" style="fill:none;stroke:#FAA523;stroke-width:16.20"/>
	<text x="2127.08" y="3309.13" style="font-family:'Lucida Sans';font-size:125.08px;fill:#000000">WGU Withdrawers</text>
	<text x="3935.16" y="3309.13" style="font-family:'Lucida Sans';font-size:125.08px;fill:#000000">Matched Controls</text>
</svg>
