<?xml version="1.0" encoding="UTF-8" standalone="no"?>
<!-- This is a Stata 19.5 generated SVG file (http://www.stata.com) -->

<svg version="1.1" width="8.500in" height="5.000in" viewBox="0 0 6120 3600" xmlns="http://www.w3.org/2000/svg" xmlns:xlink="http://www.w3.org/1999/xlink">
	<desc>Stata Graph - Graph</desc>
	<rect x="0" y="0" width="6120" height="3600" style="fill:#FFFFFF;stroke:none"/>
	<rect x="0.00" y="0.00" width="6119.81" height="3600.00" style="fill:#FFFFFF"/>
	<rect x="3.60" y="3.60" width="6112.61" height="3592.80" style="fill:none;stroke:#FFFFFF;stroke-width:7.20"/>
	<rect x="642.60" y="252.07" width="5189.19" height="2503.53" style="fill:#FFFFFF"/>
	<rect x="646.20" y="255.67" width="5181.99" height="2496.33" style="fill:none;stroke:#FFFFFF;stroke-width:7.20"/>
	<line x1="3237.29" y1="2676.43" x2="3237.29" y2="2604.32" style="stroke:#505050;stroke-width:16.20"/>
	<line x1="3237.29" y1="2568.37" x2="3237.29" y2="2496.46" style="stroke:#505050;stroke-width:16.20"/>
	<line x1="3237.29" y1="2460.50" x2="3237.29" y2="2388.40" style="stroke:#505050;stroke-width:16.20"/>
	<line x1="3237.29" y1="2352.44" x2="3237.29" y2="2280.34" style="stroke:#505050;stroke-width:16.20"/>
	<line x1="3237.29" y1="2244.38" x2="3237.29" y2="2172.47" style="stroke:#505050;stroke-width:16.20"/>
	<line x1="3237.29" y1="2136.51" x2="3237.29" y2="2064.41" style="stroke:#505050;stroke-width:16.20"/>
	<line x1="3237.29" y1="2028.45" x2="3237.29" y2="1956.35" style="stroke:#505050;stroke-width:16.20"/>
	<line x1="3237.29" y1="1920.40" x2="3237.29" y2="1848.48" style="stroke:#505050;stroke-width:16.20"/>
	<line x1="3237.29" y1="1812.53" x2="3237.29" y2="1740.42" style="stroke:#505050;stroke-width:16.20"/>
	<line x1="3237.29" y1="1704.47" x2="3237.29" y2="1632.36" style="stroke:#505050;stroke-width:16.20"/>
	<line x1="3237.29" y1="1596.41" x2="3237.29" y2="1524.50" style="stroke:#505050;stroke-width:16.20"/>
	<line x1="3237.29" y1="1488.54" x2="3237.29" y2="1416.44" style="stroke:#505050;stroke-width:16.20"/>
	<line x1="3237.29" y1="1380.48" x2="3237.29" y2="1308.38" style="stroke:#505050;stroke-width:16.20"/>
	<line x1="3237.29" y1="1272.42" x2="3237.29" y2="1200.51" style="stroke:#505050;stroke-width:16.20"/>
	<line x1="3237.29" y1="1164.36" x2="3237.29" y2="1092.45" style="stroke:#505050;stroke-width:16.20"/>
	<line x1="3237.29" y1="1056.49" x2="3237.29" y2="984.39" style="stroke:#505050;stroke-width:16.20"/>
	<line x1="3237.29" y1="948.44" x2="3237.29" y2="876.52" style="stroke:#505050;stroke-width:16.20"/>
	<line x1="3237.29" y1="840.38" x2="3237.29" y2="768.46" style="stroke:#505050;stroke-width:16.20"/>
	<line x1="3237.29" y1="732.51" x2="3237.29" y2="660.40" style="stroke:#505050;stroke-width:16.20"/>
	<line x1="3237.29" y1="624.45" x2="3237.29" y2="552.35" style="stroke:#505050;stroke-width:16.20"/>
	<line x1="3237.29" y1="516.39" x2="3237.29" y2="444.48" style="stroke:#505050;stroke-width:16.20"/>
	<line x1="3237.29" y1="408.52" x2="3237.29" y2="336.42" style="stroke:#505050;stroke-width:16.20"/>
	<line x1="4716.99" y1="2676.43" x2="4716.99" y2="2604.32" style="stroke:#505050;stroke-width:16.20"/>
	<line x1="4716.99" y1="2568.37" x2="4716.99" y2="2496.46" style="stroke:#505050;stroke-width:16.20"/>
	<line x1="4716.99" y1="2460.50" x2="4716.99" y2="2388.40" style="stroke:#505050;stroke-width:16.20"/>
	<line x1="4716.99" y1="2352.44" x2="4716.99" y2="2280.34" style="stroke:#505050;stroke-width:16.20"/>
	<line x1="4716.99" y1="2244.38" x2="4716.99" y2="2172.47" style="stroke:#505050;stroke-width:16.20"/>
	<line x1="4716.99" y1="2136.51" x2="4716.99" y2="2064.41" style="stroke:#505050;stroke-width:16.20"/>
	<line x1="4716.99" y1="2028.45" x2="4716.99" y2="1956.35" style="stroke:#505050;stroke-width:16.20"/>
	<line x1="4716.99" y1="1920.40" x2="4716.99" y2="1848.48" style="stroke:#505050;stroke-width:16.20"/>
	<line x1="4716.99" y1="1812.53" x2="4716.99" y2="1740.42" style="stroke:#505050;stroke-width:16.20"/>
	<line x1="4716.99" y1="1704.47" x2="4716.99" y2="1632.36" style="stroke:#505050;stroke-width:16.20"/>
	<line x1="4716.99" y1="1596.41" x2="4716.99" y2="1524.50" style="stroke:#505050;stroke-width:16.20"/>
	<line x1="4716.99" y1="1488.54" x2="4716.99" y2="1416.44" style="stroke:#505050;stroke-width:16.20"/>
	<line x1="4716.99" y1="1380.48" x2="4716.99" y2="1308.38" style="stroke:#505050;stroke-width:16.20"/>
	<line x1="4716.99" y1="1272.42" x2="4716.99" y2="1200.51" style="stroke:#505050;stroke-width:16.20"/>
	<line x1="4716.99" y1="1164.36" x2="4716.99" y2="1092.45" style="stroke:#505050;stroke-width:16.20"/>
	<line x1="4716.99" y1="1056.49" x2="4716.99" y2="984.39" style="stroke:#505050;stroke-width:16.20"/>
	<line x1="4716.99" y1="948.44" x2="4716.99" y2="876.52" style="stroke:#505050;stroke-width:16.20"/>
	<line x1="4716.99" y1="840.38" x2="4716.99" y2="768.46" style="stroke:#505050;stroke-width:16.20"/>
	<line x1="4716.99" y1="732.51" x2="4716.99" y2="660.40" style="stroke:#505050;stroke-width:16.20"/>
	<line x1="4716.99" y1="624.45" x2="4716.99" y2="552.35" style="stroke:#505050;stroke-width:16.20"/>
	<line x1="4716.99" y1="516.39" x2="4716.99" y2="444.48" style="stroke:#505050;stroke-width:16.20"/>
	<line x1="4716.99" y1="408.52" x2="4716.99" y2="336.42" style="stroke:#505050;stroke-width:16.20"/>
	<path d=" M771.12 2056.19 L1264.35 1998.24 L1757.59 1924.41 L2250.82 1848.10 L2743.86 1771.79 L3237.10 1735.45 L3730.33 1731.43 L4223.56 1750.75 L4716.80 1105.84 L5210.03 503.00 L5703.27 392.84" stroke-linejoin="round" style="fill:none;stroke:#29B6A4;stroke-width:16.20"/>
	<circle cx="771.12" cy="2056.19" r="30.67" style="fill:#29B6A4"/>
	<circle cx="771.12" cy="2056.19" r="22.57" style="fill:none;stroke:#29B6A4;stroke-width:16.20"/>
	<circle cx="1264.35" cy="1998.24" r="30.67" style="fill:#29B6A4"/>
	<circle cx="1264.35" cy="1998.24" r="22.57" style="fill:none;stroke:#29B6A4;stroke-width:16.20"/>
	<circle cx="1757.59" cy="1924.41" r="30.67" style="fill:#29B6A4"/>
	<circle cx="1757.59" cy="1924.41" r="22.57" style="fill:none;stroke:#29B6A4;stroke-width:16.20"/>
	<circle cx="2250.82" cy="1848.10" r="30.67" style="fill:#29B6A4"/>
	<circle cx="2250.82" cy="1848.10" r="22.57" style="fill:none;stroke:#29B6A4;stroke-width:16.20"/>
	<circle cx="2743.86" cy="1771.79" r="30.67" style="fill:#29B6A4"/>
	<circle cx="2743.86" cy="1771.79" r="22.57" style="fill:none;stroke:#29B6A4;stroke-width:16.20"/>
	<circle cx="3237.10" cy="1735.45" r="30.67" style="fill:#29B6A4"/>
	<circle cx="3237.10" cy="1735.45" r="22.57" style="fill:none;stroke:#29B6A4;stroke-width:16.20"/>
	<circle cx="3730.33" cy="1731.43" r="30.67" style="fill:#29B6A4"/>
	<circle cx="3730.33" cy="1731.43" r="22.57" style="fill:none;stroke:#29B6A4;stroke-width:16.20"/>
	<circle cx="4223.56" cy="1750.75" r="30.67" style="fill:#29B6A4"/>
	<circle cx="4223.56" cy="1750.75" r="22.57" style="fill:none;stroke:#29B6A4;stroke-width:16.20"/>
	<circle cx="4716.80" cy="1105.84" r="30.67" style="fill:#29B6A4"/>
	<circle cx="4716.80" cy="1105.84" r="22.57" style="fill:none;stroke:#29B6A4;stroke-width:16.20"/>
	<circle cx="5210.03" cy="503.00" r="30.67" style="fill:#29B6A4"/>
	<circle cx="5210.03" cy="503.00" r="22.57" style="fill:none;stroke:#29B6A4;stroke-width:16.20"/>
	<circle cx="5703.27" cy="392.84" r="30.67" style="fill:#29B6A4"/>
	<circle cx="5703.27" cy="392.84" r="22.57" style="fill:none;stroke:#29B6A4;stroke-width:16.20"/>
	<path d=" M771.12 2056.19 L1264.35 1999.96 L1757.59 1926.71 L2250.82 1803.54 L2743.86 1680.37 L3237.10 1564.85 L3730.33 1455.26 L4223.56 1355.62 L4716.80 1267.07 L5210.03 1187.31 L5703.27 1112.92" stroke-linejoin="round" style="fill:none;stroke:#FAA523;stroke-width:16.20"/>
	<circle cx="771.12" cy="2056.19" r="30.67" style="fill:#FAA523"/>
	<circle cx="771.12" cy="2056.19" r="22.57" style="fill:none;stroke:#FAA523;stroke-width:16.20"/>
	<circle cx="1264.35" cy="1999.96" r="30.67" style="fill:#FAA523"/>
	<circle cx="1264.35" cy="1999.96" r="22.57" style="fill:none;stroke:#FAA523;stroke-width:16.20"/>
	<circle cx="1757.59" cy="1926.71" r="30.67" style="fill:#FAA523"/>
	<circle cx="1757.59" cy="1926.71" r="22.57" style="fill:none;stroke:#FAA523;stroke-width:16.20"/>
	<circle cx="2250.82" cy="1803.54" r="30.67" style="fill:#FAA523"/>
	<circle cx="2250.82" cy="1803.54" r="22.57" style="fill:none;stroke:#FAA523;stroke-width:16.20"/>
	<circle cx="2743.86" cy="1680.37" r="30.67" style="fill:#FAA523"/>
	<circle cx="2743.86" cy="1680.37" r="22.57" style="fill:none;stroke:#FAA523;stroke-width:16.20"/>
	<circle cx="3237.10" cy="1564.85" r="30.67" style="fill:#FAA523"/>
	<circle cx="3237.10" cy="1564.85" r="22.57" style="fill:none;stroke:#FAA523;stroke-width:16.20"/>
	<circle cx="3730.33" cy="1455.26" r="30.67" style="fill:#FAA523"/>
	<circle cx="3730.33" cy="1455.26" r="22.57" style="fill:none;stroke:#FAA523;stroke-width:16.20"/>
	<circle cx="4223.56" cy="1355.62" r="30.67" style="fill:#FAA523"/>
	<circle cx="4223.56" cy="1355.62" r="22.57" style="fill:none;stroke:#FAA523;stroke-width:16.20"/>
	<circle cx="4716.80" cy="1267.07" r="30.67" style="fill:#FAA523"/>
	<circle cx="4716.80" cy="1267.07" r="22.57" style="fill:none;stroke:#FAA523;stroke-width:16.20"/>
	<circle cx="5210.03" cy="1187.31" r="30.67" style="fill:#FAA523"/>
	<circle cx="5210.03" cy="1187.31" r="22.57" style="fill:none;stroke:#FAA523;stroke-width:16.20"/>
	<circle cx="5703.27" cy="1112.92" r="30.67" style="fill:#FAA523"/>
	<circle cx="5703.27" cy="1112.92" r="22.57" style="fill:none;stroke:#FAA523;stroke-width:16.20"/>
	<path d="" stroke-linejoin="round" style="fill:none;stroke:#000000;stroke-opacity:0.00;stroke-width:0.00"/>
	<text x="3237.29" y="240.47" style="font-family:'Lucida Sans';font-size:100.02px;fill:#505050" text-anchor="middle">Entry</text>
	<text x="4716.99" y="240.47" style="font-family:'Lucida Sans';font-size:100.02px;fill:#505050" text-anchor="middle">Graduation</text>
	<line x1="642.60" y1="2755.61" x2="642.60" y2="252.07" style="stroke:#000000;stroke-width:10.80"/>
	<line x1="642.60" y1="2676.43" x2="592.68" y2="2676.43" style="stroke:#000000;stroke-width:10.80"/>
	<text x="567.63" y="2711.48" style="font-family:'Lucida Sans';font-size:100.02px;fill:#000000" text-anchor="end">0</text>
	<line x1="642.60" y1="2090.23" x2="592.68" y2="2090.23" style="stroke:#000000;stroke-width:10.80"/>
	<text x="567.63" y="2125.29" style="font-family:'Lucida Sans';font-size:100.02px;fill:#000000" text-anchor="end">10000</text>
	<line x1="642.60" y1="1503.84" x2="592.68" y2="1503.84" style="stroke:#000000;stroke-width:10.80"/>
	<text x="567.63" y="1538.90" style="font-family:'Lucida Sans';font-size:100.02px;fill:#000000" text-anchor="end">20000</text>
	<line x1="642.60" y1="917.45" x2="592.68" y2="917.45" style="stroke:#000000;stroke-width:10.80"/>
	<text x="567.63" y="952.51" style="font-family:'Lucida Sans';font-size:100.02px;fill:#000000" text-anchor="end">30000</text>
	<line x1="642.60" y1="331.25" x2="592.68" y2="331.25" style="stroke:#000000;stroke-width:10.80"/>
	<text x="567.63" y="366.31" style="font-family:'Lucida Sans';font-size:100.02px;fill:#000000" text-anchor="end">40000</text>
	<text x="166.88" y="1503.84" style="font-family:'Lucida Sans';font-size:100.02px;fill:#000000" transform="rotate(-90 166.88,1503.84)" text-anchor="middle">Mean W-2 Wage Earnings</text>
	<line x1="642.60" y1="2755.61" x2="5831.79" y2="2755.61" style="stroke:#000000;stroke-width:10.80"/>
	<line x1="771.12" y1="2755.61" x2="771.12" y2="2805.72" style="stroke:#000000;stroke-width:10.80"/>
	<text x="771.12" y="2900.50" style="font-family:'Lucida Sans';font-size:100.02px;fill:#000000" text-anchor="middle">-5</text>
	<line x1="1264.35" y1="2755.61" x2="1264.35" y2="2805.72" style="stroke:#000000;stroke-width:10.80"/>
	<text x="1264.35" y="2900.50" style="font-family:'Lucida Sans';font-size:100.02px;fill:#000000" text-anchor="middle">-4</text>
	<line x1="1757.59" y1="2755.61" x2="1757.59" y2="2805.72" style="stroke:#000000;stroke-width:10.80"/>
	<text x="1757.59" y="2900.50" style="font-family:'Lucida Sans';font-size:100.02px;fill:#000000" text-anchor="middle">-3</text>
	<line x1="2250.82" y1="2755.61" x2="2250.82" y2="2805.72" style="stroke:#000000;stroke-width:10.80"/>
	<text x="2250.82" y="2900.50" style="font-family:'Lucida Sans';font-size:100.02px;fill:#000000" text-anchor="middle">-2</text>
	<line x1="2744.06" y1="2755.61" x2="2744.06" y2="2805.72" style="stroke:#000000;stroke-width:10.80"/>
	<text x="2744.06" y="2900.50" style="font-family:'Lucida Sans';font-size:100.02px;fill:#000000" text-anchor="middle">-1</text>
	<line x1="3237.29" y1="2755.61" x2="3237.29" y2="2805.72" style="stroke:#000000;stroke-width:10.80"/>
	<text x="3237.29" y="2900.50" style="font-family:'Lucida Sans';font-size:100.02px;fill:#000000" text-anchor="middle">0</text>
	<line x1="3730.52" y1="2755.61" x2="3730.52" y2="2805.72" style="stroke:#000000;stroke-width:10.80"/>
	<text x="3730.52" y="2900.50" style="font-family:'Lucida Sans';font-size:100.02px;fill:#000000" text-anchor="middle">1</text>
	<line x1="4223.76" y1="2755.61" x2="4223.76" y2="2805.72" style="stroke:#000000;stroke-width:10.80"/>
	<text x="4223.76" y="2900.50" style="font-family:'Lucida Sans';font-size:100.02px;fill:#000000" text-anchor="middle">2</text>
	<line x1="4716.99" y1="2755.61" x2="4716.99" y2="2805.72" style="stroke:#000000;stroke-width:10.80"/>
	<text x="4716.99" y="2900.50" style="font-family:'Lucida Sans';font-size:100.02px;fill:#000000" text-anchor="middle">3</text>
	<line x1="5210.03" y1="2755.61" x2="5210.03" y2="2805.72" style="stroke:#000000;stroke-width:10.80"/>
	<text x="5210.03" y="2900.50" style="font-family:'Lucida Sans';font-size:100.02px;fill:#000000" text-anchor="middle">4</text>
	<line x1="5703.27" y1="2755.61" x2="5703.27" y2="2805.72" style="stroke:#000000;stroke-width:10.80"/>
	<text x="5703.27" y="2900.50" style="font-family:'Lucida Sans';font-size:100.02px;fill:#000000" text-anchor="middle">5</text>
	<text x="3237.29" y="3050.45" style="font-family:'Lucida Sans';font-size:100.02px;fill:#000000" text-anchor="middle">Years Relative to Entry</text>
	<rect x="1559.26" y="3148.83" width="3355.86" height="407.95" style="fill:#FFFFFF"/>
	<rect x="1562.86" y="3152.43" width="3348.66" height="400.75" style="fill:none;stroke:#FFFFFF;stroke-opacity:0.00;stroke-width:7.20"/>
	<line x1="1613.39" y1="3265.30" x2="2081.37" y2="3265.30" style="stroke:#29B6A4;stroke-width:16.20"/>
	<circle cx="1847.28" cy="3265.30" r="30.67" style="fill:#29B6A4"/>
	<circle cx="1847.28" cy="3265.30" r="22.57" style="fill:none;stroke:#29B6A4;stroke-width:16.20"/>
	<line x1="3304.80" y1="3265.30" x2="3772.79" y2="3265.30" style="stroke:#FAA523;stroke-width:16.20"/>
	<circle cx="3538.70" cy="3265.30" r="30.67" style="fill:#FAA523"/>
	<circle cx="3538.70" cy="3265.30" r="22.57" style="fill:none;stroke:#FAA523;stroke-width:16.20"/>
	<text x="2156.34" y="3309.13" style="font-family:'Lucida Sans';font-size:125.08px;fill:#000000">WGU Graduates</text>
	<text x="3847.76" y="3309.13" style="font-family:'Lucida Sans';font-size:125.08px;fill:#000000">Matched Controls</text>
</svg>
